<?xml version="1.0" standalone="no"?>
<!DOCTYPE svg PUBLIC "-//W3C//DTD SVG 20010904//EN"
 "http://www.w3.org/TR/2001/REC-SVG-20010904/DTD/svg10.dtd">
<svg version="1.0" xmlns="http://www.w3.org/2000/svg"
 width="678.000000pt" height="678.000000pt" viewBox="0 0 678.000000 678.000000"
 preserveAspectRatio="xMidYMid meet">
<metadata>
Created by potrace 1.14, written by Peter Selinger 2001-2017
</metadata>
<g transform="translate(0.000000,678.000000) scale(0.100000,-0.100000)"
fill="#000000" stroke="none">
<path d="M225 6760 c-4 -6 -11 -8 -16 -5 -5 4 -15 3 -21 -2 -7 -4 -15 -8 -18
-8 -3 -1 -19 -8 -36 -17 -109 -59 -155 -190 -119 -344 13 -57 57 -158 76 -174
11 -10 158 -250 214 -350 41 -75 245 -485 245 -494 0 -3 8 -25 19 -49 10 -23
28 -62 39 -87 16 -37 86 -216 134 -342 5 -15 8 -29 7 -31 -2 -2 1 -10 7 -18 9
-11 99 -269 110 -314 9 -36 14 -54 24 -85 18 -55 76 -271 84 -314 2 -12 7 -28
10 -36 3 -8 7 -28 10 -45 7 -44 15 -87 22 -115 6 -25 10 -51 18 -125 10 -82
26 -120 73 -171 91 -98 227 -126 344 -70 67 31 100 86 119 193 20 124 14 357
-16 536 -3 20 -7 47 -9 60 -1 12 -6 38 -9 57 -4 19 -9 46 -10 60 -2 14 -7 38
-11 55 -5 16 -9 39 -10 50 -1 11 -5 31 -8 45 -4 14 -18 75 -33 135 -15 61 -29
115 -31 121 -2 7 10 14 29 18 18 3 44 8 58 11 33 7 185 33 234 41 21 3 48 7
59 10 12 2 39 6 62 9 22 3 51 8 65 10 49 9 255 33 333 40 32 3 70 7 85 9 25 4
107 11 272 23 97 7 710 10 710 4 0 -3 24 -6 53 -7 28 0 81 -4 117 -8 36 -4 79
-9 95 -11 40 -3 113 -14 150 -22 17 -3 39 -7 50 -9 34 -4 157 -33 234 -56 63
-19 75 -26 86 -52 8 -19 10 -38 4 -53 -5 -13 -6 -23 -4 -23 4 0 0 -14 -31 -95
-4 -11 -8 -24 -10 -30 -1 -5 -8 -23 -15 -40 -7 -16 -13 -32 -14 -35 -3 -10
-25 -61 -46 -108 -27 -61 -149 -305 -179 -357 -13 -22 -34 -60 -48 -85 -49
-88 -167 -277 -245 -392 -59 -89 -84 -118 -100 -119 -12 0 -31 -2 -42 -3 -11
-2 -56 -6 -100 -10 -44 -4 -96 -9 -115 -11 -36 -4 -92 -10 -195 -20 -33 -3
-79 -8 -102 -10 -24 -2 -75 -7 -115 -11 -40 -3 -86 -8 -103 -9 -16 -2 -64 -6
-105 -9 -41 -3 -97 -8 -125 -11 -51 -4 -152 -12 -260 -20 -33 -3 -96 -7 -140
-10 -110 -8 -199 -13 -345 -19 -214 -10 -270 -26 -340 -99 -62 -64 -83 -130
-84 -262 0 -60 3 -125 6 -143 11 -57 48 -121 91 -154 23 -18 41 -32 42 -30 0
2 7 1 15 -1 73 -23 158 -26 450 -12 250 11 347 16 430 20 47 3 126 7 175 10
50 2 141 7 204 11 l114 6 -39 -33 c-112 -97 -121 -128 -57 -194 19 -19 44 -35
56 -35 16 0 66 43 162 140 131 133 141 140 179 141 23 1 57 3 76 4 19 2 94 6
165 10 72 3 150 8 175 10 106 7 309 18 357 19 29 1 53 3 53 6 0 3 28 5 63 6
59 1 188 7 397 20 176 10 265 15 285 14 11 -1 25 -1 30 -2 19 0 129 12 164 18
101 19 215 112 240 196 15 48 16 137 2 186 -5 17 -8 32 -6 32 2 0 -2 18 -10
40 -8 22 -14 41 -13 43 8 16 -59 160 -99 213 -27 37 -93 83 -132 92 -50 13
-279 5 -372 -13 -11 -2 -48 -7 -82 -10 -34 -3 -73 -8 -87 -10 -35 -6 -117 -15
-175 -20 -28 -2 -63 -6 -80 -9 -36 -6 -96 -13 -190 -22 -38 -3 -78 -8 -87 -10
-10 -1 -18 0 -18 3 0 3 22 35 49 72 41 56 140 204 253 380 15 25 28 50 28 57
0 7 4 14 9 16 18 7 224 407 300 583 24 55 49 114 57 130 46 102 101 260 97
276 -3 11 -15 25 -27 31 -17 9 -127 34 -236 54 -14 2 -38 7 -55 11 -16 3 -37
7 -45 9 -8 1 -35 5 -60 9 -126 20 -290 44 -335 50 -22 2 -69 7 -105 11 -36 3
-81 7 -100 9 -265 28 -886 27 -1105 0 -16 -2 -73 -9 -125 -15 -84 -10 -161
-21 -240 -36 -14 -2 -41 -7 -60 -10 -19 -3 -66 -12 -105 -21 -38 -8 -81 -17
-95 -19 -38 -7 -329 -84 -375 -98 -92 -30 -93 -30 -105 13 -6 22 -20 68 -31
103 -11 35 -22 70 -24 78 -10 40 -94 264 -136 365 -70 168 -97 229 -148 333
-34 67 -61 127 -61 132 0 6 -3 10 -7 10 -5 0 -13 10 -19 23 -14 29 -57 108
-67 121 -4 6 -35 54 -69 106 -34 52 -67 100 -72 106 -6 6 -24 28 -41 49 -56
73 -183 190 -232 215 -38 19 -66 25 -140 27 -53 1 -95 -2 -98 -7z"/>
<path d="M4227 2604 c-1 -1 -55 -5 -120 -9 -65 -3 -135 -8 -155 -10 -159 -19
-164 -21 -164 -89 0 -52 18 -105 36 -107 46 -6 109 -5 156 2 112 19 125 21
131 25 3 1 34 8 70 14 35 5 77 13 94 16 110 20 263 3 358 -41 71 -32 166 -121
218 -203 24 -37 140 -260 259 -497 119 -236 256 -507 303 -601 48 -95 87 -176
87 -182 0 -6 4 -12 9 -14 5 -2 36 -57 71 -123 141 -274 199 -354 294 -410 40
-24 60 -29 115 -28 135 0 258 31 396 99 95 47 134 83 128 117 -11 54 -73 59
-173 14 -190 -86 -192 -86 -287 -89 -96 -2 -169 44 -245 155 -22 32 -218 415
-435 850 -218 436 -414 824 -436 862 -62 107 -156 192 -247 222 -54 18 -140
26 -308 27 -84 1 -154 1 -155 0z"/>
<path d="M2516 2299 c-60 -16 -104 -68 -107 -126 -2 -40 11 -325 16 -343 8
-26 -8 -38 -60 -44 -27 -4 -57 -9 -65 -11 -8 -2 -40 -6 -71 -10 -31 -3 -67 -8
-80 -10 -13 -3 -44 -7 -69 -11 -75 -9 -115 -14 -135 -18 -31 -5 -117 -18 -145
-21 -14 -2 -38 -6 -55 -9 -16 -3 -50 -8 -75 -10 -25 -3 -63 -8 -85 -11 -22 -3
-51 -8 -65 -10 -14 -2 -45 -6 -70 -10 -25 -4 -56 -9 -70 -10 -36 -4 -122 -17
-145 -21 -11 -2 -40 -7 -65 -10 -25 -3 -56 -7 -70 -9 -14 -2 -47 -7 -75 -10
-27 -4 -63 -9 -80 -12 -16 -2 -42 -6 -57 -8 -40 -6 -66 -22 -73 -46 -13 -39
23 -53 101 -37 96 19 256 48 294 54 14 2 41 7 60 10 35 6 57 9 135 20 22 3 47
7 55 8 8 1 40 6 70 11 30 4 64 9 75 11 11 3 40 7 65 10 39 4 122 16 200 29 14
2 45 6 70 9 25 3 77 10 115 15 39 6 90 12 115 16 25 3 63 7 85 10 22 3 63 8
90 11 28 3 55 7 62 9 20 6 26 -14 29 -89 1 -39 3 -71 3 -71 1 0 4 -56 7 -125
3 -69 7 -156 9 -195 2 -38 7 -126 10 -195 4 -69 8 -152 10 -185 2 -33 6 -114
10 -180 8 -158 9 -165 28 -201 34 -66 45 -68 317 -70 141 0 253 3 265 9 32 15
66 50 77 77 9 24 12 63 23 330 3 69 8 170 10 225 2 55 7 154 10 220 2 66 7
167 9 225 32 715 32 702 9 741 -10 19 -34 42 -52 53 -32 18 -55 20 -338 20
-167 1 -314 -2 -327 -5z"/>
<path d="M6604 770 c-10 -5 -29 -19 -42 -32 -66 -72 -10 -188 91 -188 47 0
101 51 105 99 3 39 -20 91 -49 110 -26 15 -77 21 -105 11z"/>
<path d="M2667 253 c-1 -1 -51 -3 -112 -4 -60 -2 -128 -6 -150 -10 -40 -7
-109 -17 -175 -25 -19 -2 -46 -6 -60 -9 -14 -2 -47 -7 -75 -11 -27 -3 -61 -7
-74 -9 -13 -2 -45 -7 -70 -11 -25 -3 -57 -8 -71 -10 -14 -2 -48 -6 -76 -9 -28
-3 -62 -8 -75 -10 -13 -3 -44 -7 -69 -10 -25 -3 -54 -8 -65 -10 -11 -2 -47 -7
-79 -11 -33 -3 -69 -8 -80 -10 -12 -2 -41 -7 -66 -10 -102 -13 -119 -19 -117
-45 1 -10 4 -19 7 -20 3 0 14 -2 25 -5 21 -5 31 -5 141 -3 39 1 76 -1 81 -4 6
-4 13 -4 16 -1 8 8 296 8 304 1 3 -4 10 -4 15 -1 8 5 331 8 348 4 21 -6 80 -3
80 3 0 4 12 4 27 1 15 -4 32 -7 38 -6 8 1 165 2 225 2 8 0 78 0 155 0 77 1
145 1 150 0 6 -2 15 -1 20 0 21 4 263 2 271 -3 5 -2 18 -1 29 3 11 4 32 4 47
-1 14 -4 29 -5 32 -2 7 8 151 7 163 0 6 -4 13 -4 16 -1 8 8 292 8 305 0 6 -3
13 -3 16 2 3 5 28 6 56 2 27 -4 50 -3 50 2 0 5 12 5 27 2 15 -4 32 -7 38 -6
36 5 236 5 241 0 3 -3 19 -2 35 2 16 5 42 5 58 0 16 -4 32 -6 35 -3 3 3 28 6
55 6 39 0 50 3 54 17 10 38 7 39 -398 94 -22 3 -51 8 -65 10 -14 3 -45 8 -70
11 -25 3 -65 7 -90 10 -25 3 -56 8 -70 10 -34 7 -122 18 -137 18 -7 0 -13 3
-13 6 0 3 -17 6 -38 7 -20 0 -55 3 -77 7 -22 3 -60 9 -85 12 -25 4 -56 8 -70
11 -76 12 -159 16 -383 17 -137 1 -249 1 -250 0z"/>
</g>
</svg>
